<svg width="197" height="99" viewBox="0 0 197 99" fill="none" xmlns="http://www.w3.org/2000/svg">
<path d="M0.25 74H13.8203L31.4688 46.1562H31.75L49.2578 74H62.8281L38.5 36.9453L63.1797 0.875H49.5391L32.1719 28.2969H31.8906L14.3125 0.875H0.671875L25.1406 37.4375L0.25 74ZM80.4766 98.6094C93.6953 98.6094 100.094 92.5625 105.297 78.5703L133.844 0.875H120.977L100.727 61.7656H100.445L80.2656 0.875H67.1875L94.3281 74.0703L92.8516 78.2188C89.8984 86.5156 85.6094 88.4844 77.875 88.4844C76.3984 88.4844 74.9922 88.2734 73.9375 88.0625V98.0469C75.4844 98.3281 78.0859 98.6094 80.4766 98.6094ZM141.93 74H196.492V63.875H156.133V63.6641L196.281 9.80469V0.875H142V11H182.359V11.2109L141.93 65.2812V74Z" fill="black"/>
</svg>
